.ufo
<glyph name="exclam" format="1">
  <advance width="524"/>
  <unicode hex="0021"/>
  <outline>
    <contour>
      <point x="95" y="0" type="line" smooth="no"/>
      <point x="95" y="317" type="line" smooth="no"/>
      <point x="418" y="317" type="line" smooth="no"/>
      <point x="418" y="0" type="line" smooth="no"/>
    </contour>
    <contour>
      <point x="199" y="462" type="line" smooth="no"/>
      <point x="95" y="1800" type="line" smooth="no"/>
      <point x="438" y="1800" type="line" smooth="no"/>
      <point x="315" y="462" type="line" smooth="no"/>
    </contour>
  </outline>
</glyph>
<glyph name="asterisk" format="1">
  <advance width="913"/>
  <unicode hex="002a"/>
  <outline>
    <contour>
      <point x="158" y="974" type="line" smooth="no"/>
      <point x="320" y="1205" type="line" smooth="no"/>
      <point x="76" y="1299" type="line" smooth="no"/>
      <point x="150" y="1496" type="line" smooth="no"/>
      <point x="373" y="1378" type="line" smooth="no"/>
      <point x="346" y="1642" type="line" smooth="no"/>
      <point x="596" y="1642" type="line" smooth="no"/>
      <point x="571" y="1377" type="line" smooth="no"/>
      <point x="794" y="1497" type="line" smooth="no"/>
      <point x="868" y="1298" type="line" smooth="no"/>
      <point x="622" y="1204" type="line" smooth="no"/>
      <point x="787" y="974" type="line" smooth="no"/>
      <point x="589" y="858" type="line" smooth="no"/>
      <point x="471" y="1093" type="line" smooth="no"/>
      <point x="354" y="858" type="line" smooth="no"/>
    </contour>
  </outline>
</glyph>
<glyph name="plus" format="1">
  <advance width="762"/>
  <unicode hex="002b"/>
  <outline>
    <contour>
      <point x="70" y="583" type="line" smooth="no"/>
      <point x="70" y="806" type="line" smooth="no"/>
      <point x="265" y="806" type="line" smooth="no"/>
      <point x="265" y="1000" type="line" smooth="no"/>
      <point x="487" y="1000" type="line" smooth="no"/>
      <point x="487" y="806" type="line" smooth="no"/>
      <point x="682" y="806" type="line" smooth="no"/>
      <point x="682" y="583" type="line" smooth="no"/>
      <point x="487" y="583" type="line" smooth="no"/>
      <point x="487" y="389" type="line" smooth="no"/>
      <point x="265" y="389" type="line" smooth="no"/>
      <point x="265" y="583" type="line" smooth="no"/>
    </contour>
  </outline>
</glyph>
<glyph name="hyphen" format="1">
  <advance width="429"/>
  <unicode hex="002d"/>
  <outline>
    <contour>
      <point x="4" y="453" type="line" smooth="no"/>
      <point x="4" y="676" type="line" smooth="no"/>
      <point x="421" y="676" type="line" smooth="no"/>
      <point x="421" y="453" type="line" smooth="no"/>
    </contour>
  </outline>
</glyph>
<glyph name="period" format="1">
  <advance width="522"/>
  <unicode hex="002e"/>
  <outline>
    <contour>
      <point x="99" y="0" type="line" smooth="no"/>
      <point x="99" y="317" type="line" smooth="no"/>
      <point x="424" y="317" type="line" smooth="no"/>
      <point x="424" y="0" type="line" smooth="no"/>
    </contour>
  </outline>
</glyph>
<glyph name="slash" format="1">
  <advance width="895"/>
  <unicode hex="002f"/>
  <outline>
    <contour>
      <point x="91" y="0" type="line" smooth="no"/>
      <point x="668" y="1835" type="line" smooth="no"/>
      <point x="848" y="1835" type="line" smooth="no"/>
      <point x="270" y="0" type="line" smooth="no"/>
    </contour>
  </outline>
</glyph>
<glyph name="one" format="1">
  <advance width="676"/>
  <unicode hex="0031"/>
  <outline>
    <contour>
      <point x="225" y="0" type="line" smooth="no"/>
      <point x="225" y="1337" type="line" smooth="no"/>
      <point x="43" y="1337" type="line" smooth="no"/>
      <point x="43" y="1602" type="line" smooth="no"/>
      <point x="150" y="1666"/>
      <point x="240" y="1673"/>
      <point x="303" y="1801" type="curve" smooth="no"/>
      <point x="569" y="1801" type="line" smooth="no"/>
      <point x="569" y="0" type="line" smooth="no"/>
    </contour>
  </outline>
</glyph>
<glyph name="four" format="1">
  <advance width="1107"/>
  <unicode hex="0034"/>
  <outline>
    <contour>
      <point x="370" y="717" type="line" smooth="no"/>
      <point x="566" y="717" type="line" smooth="no"/>
      <point x="566" y="1257" type="line" smooth="no"/>
    </contour>
    <contour>
      <point x="62" y="437" type="line" smooth="no"/>
      <point x="62" y="719" type="line" smooth="no"/>
      <point x="502" y="1801" type="line" smooth="no"/>
      <point x="911" y="1801" type="line" smooth="no"/>
      <point x="911" y="717" type="line" smooth="no"/>
      <point x="1079" y="717" type="line" smooth="no"/>
      <point x="1079" y="437" type="line" smooth="no"/>
      <point x="911" y="437" type="line" smooth="no"/>
      <point x="911" y="0" type="line" smooth="no"/>
      <point x="566" y="0" type="line" smooth="no"/>
      <point x="566" y="437" type="line" smooth="no"/>
    </contour>
  </outline>
</glyph>
<glyph name="colon" format="1">
  <advance width="518"/>
  <unicode hex="003a"/>
  <outline>
    <contour>
      <point x="99" y="151" type="line" smooth="no"/>
      <point x="99" y="466" type="line" smooth="no"/>
      <point x="420" y="466" type="line" smooth="no"/>
      <point x="420" y="151" type="line" smooth="no"/>
    </contour>
    <contour>
      <point x="99" y="897" type="line" smooth="no"/>
      <point x="99" y="1213" type="line" smooth="no"/>
      <point x="420" y="1213" type="line" smooth="no"/>
      <point x="420" y="897" type="line" smooth="no"/>
    </contour>
  </outline>
</glyph>
<glyph name="semicolon" format="1">
  <advance width="510"/>
  <unicode hex="003b"/>
  <outline>
    <contour>
      <point x="154" y="-95" type="curve" smooth="no"/>
      <point x="114" y="71" type="line" smooth="no"/>
      <point x="186" y="71"/>
      <point x="194" y="64"/>
      <point x="195" y="148" type="curve" smooth="no"/>
      <point x="85" y="148" type="line" smooth="no"/>
      <point x="85" y="466" type="line" smooth="no"/>
      <point x="408" y="466" type="line" smooth="no"/>
      <point x="408" y="124"/>
      <point x="437" y="-137"/>
    </contour>
    <contour>
      <point x="87" y="897" type="line" smooth="no"/>
      <point x="87" y="1213" type="line" smooth="no"/>
      <point x="408" y="1213" type="line" smooth="no"/>
      <point x="408" y="897" type="line" smooth="no"/>
    </contour>
  </outline>
</glyph>
<glyph name="less" format="1">
  <advance width="865"/>
  <unicode hex="003c"/>
  <outline>
    <contour>
      <point x="74" y="525" type="line" smooth="no"/>
      <point x="74" y="799" type="line" smooth="no"/>
      <point x="750" y="1272" type="line" smooth="no"/>
      <point x="750" y="979" type="line" smooth="no"/>
      <point x="306" y="664" type="line" smooth="no"/>
      <point x="454" y="556"/>
      <point x="602" y="451"/>
      <point x="750" y="345" type="curve" smooth="no"/>
      <point x="750" y="53" type="line" smooth="no"/>
    </contour>
  </outline>
</glyph>
<glyph name="equal" format="1">
  <advance width="762"/>
  <unicode hex="003d"/>
  <outline>
    <contour>
      <point x="70" y="258" type="line" smooth="no"/>
      <point x="70" y="480" type="line" smooth="no"/>
      <point x="682" y="480" type="line" smooth="no"/>
      <point x="682" y="258" type="line" smooth="no"/>
    </contour>
    <contour>
      <point x="70" y="583" type="line" smooth="no"/>
      <point x="70" y="806" type="line" smooth="no"/>
      <point x="682" y="806" type="line" smooth="no"/>
      <point x="682" y="583" type="line" smooth="no"/>
    </contour>
  </outline>
</glyph>
<glyph name="greater" format="1">
  <advance width="865"/>
  <unicode hex="003e"/>
  <outline>
    <contour>
      <point x="115" y="53" type="line" smooth="no"/>
      <point x="115" y="345" type="line" smooth="no"/>
      <point x="559" y="664" type="line" smooth="no"/>
      <point x="115" y="979" type="line" smooth="no"/>
      <point x="115" y="1272" type="line" smooth="no"/>
      <point x="791" y="799" type="line" smooth="no"/>
      <point x="791" y="525" type="line" smooth="no"/>
    </contour>
  </outline>
</glyph>
<glyph name="question" format="1">
  <advance width="974"/>
  <unicode hex="003f"/>
  <outline>
    <contour>
      <point x="259" y="0" type="line" smooth="no"/>
      <point x="259" y="324" type="line" smooth="no"/>
      <point x="593" y="324" type="line" smooth="no"/>
      <point x="593" y="0" type="line" smooth="no"/>
    </contour>
    <contour>
      <point x="259" y="480" type="line" smooth="no"/>
      <point x="259" y="868" type="line" smooth="no"/>
      <point x="426" y="982"/>
      <point x="609" y="1181"/>
      <point x="609" y="1402" type="curve" smooth="yes"/>
      <point x="609" y="1494"/>
      <point x="564" y="1541"/>
      <point x="483" y="1541" type="curve" smooth="yes"/>
      <point x="404" y="1541"/>
      <point x="370" y="1466"/>
      <point x="370" y="1382" type="curve" smooth="yes"/>
      <point x="370" y="1342"/>
      <point x="377" y="1297"/>
      <point x="389" y="1258" type="curve" smooth="no"/>
      <point x="75" y="1198" type="line" smooth="no"/>
      <point x="56" y="1271"/>
      <point x="46" y="1342"/>
      <point x="46" y="1408" type="curve" smooth="yes"/>
      <point x="46" y="1650"/>
      <point x="177" y="1835"/>
      <point x="483" y="1835" type="curve" smooth="yes"/>
      <point x="777" y="1835"/>
      <point x="946" y="1673"/>
      <point x="946" y="1382" type="curve" smooth="yes"/>
      <point x="946" y="1125"/>
      <point x="816" y="889"/>
      <point x="593" y="760" type="curve" smooth="no"/>
      <point x="593" y="480" type="line" smooth="no"/>
    </contour>
  </outline>
</glyph>
<glyph name="F" format="1">
  <advance width="856"/>
  <unicode hex="0046"/>
  <outline>
    <contour>
      <point x="107" y="0" type="line" smooth="no"/>
      <point x="107" y="1800" type="line" smooth="no"/>
      <point x="858" y="1800" type="line" smooth="no"/>
      <point x="858" y="1550" type="line" smooth="no"/>
      <point x="471" y="1550" type="line" smooth="no"/>
      <point x="471" y="1060" type="line" smooth="no"/>
      <point x="745" y="1060" type="line" smooth="no"/>
      <point x="745" y="804" type="line" smooth="no"/>
      <point x="471" y="804" type="line" smooth="no"/>
      <point x="471" y="0" type="line" smooth="no"/>
    </contour>
  </outline>
</glyph>
<glyph name="H" format="1">
  <advance width="1205"/>
  <unicode hex="0048"/>
  <outline>
    <contour>
      <point x="107" y="0" type="line" smooth="no"/>
      <point x="107" y="1800" type="line" smooth="no"/>
      <point x="471" y="1800" type="line" smooth="no"/>
      <point x="471" y="1062" type="line" smooth="no"/>
      <point x="732" y="1062" type="line" smooth="no"/>
      <point x="732" y="1800" type="line" smooth="no"/>
      <point x="1098" y="1800" type="line" smooth="no"/>
      <point x="1098" y="0" type="line" smooth="no"/>
      <point x="732" y="0" type="line" smooth="no"/>
      <point x="732" y="803" type="line" smooth="no"/>
      <point x="471" y="803" type="line" smooth="no"/>
      <point x="471" y="0" type="line" smooth="no"/>
    </contour>
  </outline>
</glyph>
<glyph name="I" format="1">
  <advance width="578"/>
  <unicode hex="0049"/>
  <outline>
    <contour>
      <point x="107" y="0" type="line" smooth="no"/>
      <point x="107" y="1800" type="line" smooth="no"/>
      <point x="471" y="1800" type="line" smooth="no"/>
      <point x="471" y="0" type="line" smooth="no"/>
    </contour>
  </outline>
</glyph>
<glyph name="L" format="1">
  <advance width="838"/>
  <unicode hex="004c"/>
  <outline>
    <contour>
      <point x="107" y="0" type="line" smooth="no"/>
      <point x="107" y="1800" type="line" smooth="no"/>
      <point x="471" y="1800" type="line" smooth="no"/>
      <point x="471" y="250" type="line" smooth="no"/>
      <point x="829" y="250" type="line" smooth="no"/>
      <point x="829" y="0" type="line" smooth="no"/>
    </contour>
  </outline>
</glyph>
<glyph name="T" format="1">
  <advance width="915"/>
  <unicode hex="0054"/>
  <outline>
    <contour>
      <point x="278" y="0" type="line" smooth="no"/>
      <point x="278" y="1528" type="line" smooth="no"/>
      <point x="14" y="1528" type="line" smooth="no"/>
      <point x="14" y="1800" type="line" smooth="no"/>
      <point x="901" y="1800" type="line" smooth="no"/>
      <point x="901" y="1528" type="line" smooth="no"/>
      <point x="642" y="1528" type="line" smooth="no"/>
      <point x="642" y="0" type="line" smooth="no"/>
    </contour>
  </outline>
</glyph>
<glyph name="W" format="1">
  <advance width="1464"/>
  <unicode hex="0057"/>
  <outline>
    <contour>
      <point x="270" y="0" type="line" smooth="no"/>
      <point x="21" y="1800" type="line" smooth="no"/>
      <point x="331" y="1800" type="line" smooth="no"/>
      <point x="443" y="608" type="line" smooth="no"/>
      <point x="597" y="1800" type="line" smooth="no"/>
      <point x="864" y="1800" type="line" smooth="no"/>
      <point x="1015" y="615" type="line" smooth="no"/>
      <point x="1132" y="1800" type="line" smooth="no"/>
      <point x="1443" y="1800" type="line" smooth="no"/>
      <point x="1191" y="0" type="line" smooth="no"/>
      <point x="880" y="0" type="line" smooth="no"/>
      <point x="729" y="1178" type="line" smooth="no"/>
      <point x="581" y="0" type="line" smooth="no"/>
    </contour>
  </outline>
</glyph>
<glyph name="Y" format="1">
  <advance width="1027"/>
  <unicode hex="0059"/>
  <outline>
    <contour>
      <point x="337" y="0" type="line" smooth="no"/>
      <point x="337" y="595" type="line" smooth="no"/>
      <point x="-1" y="1800" type="line" smooth="no"/>
      <point x="342" y="1800" type="line" smooth="no"/>
      <point x="510" y="1009" type="line" smooth="no"/>
      <point x="571" y="1269"/>
      <point x="634" y="1540"/>
      <point x="695" y="1800" type="curve" smooth="no"/>
      <point x="1028" y="1800" type="line" smooth="no"/>
      <point x="689" y="595" type="line" smooth="no"/>
      <point x="689" y="0" type="line" smooth="no"/>
    </contour>
  </outline>
</glyph>
<glyph name="Z" format="1">
  <advance width="998"/>
  <unicode hex="005a"/>
  <outline>
    <contour>
      <point x="80" y="0" type="line" smooth="no"/>
      <point x="80" y="228" type="line" smooth="no"/>
      <point x="555" y="1549" type="line" smooth="no"/>
      <point x="135" y="1549" type="line" smooth="no"/>
      <point x="135" y="1799" type="line" smooth="no"/>
      <point x="911" y="1799" type="line" smooth="no"/>
      <point x="911" y="1570" type="line" smooth="no"/>
      <point x="434" y="250" type="line" smooth="no"/>
      <point x="911" y="250" type="line" smooth="no"/>
      <point x="911" y="0" type="line" smooth="no"/>
    </contour>
  </outline>
</glyph>
<glyph name="bracketleft" format="1">
  <advance width="779"/>
  <unicode hex="005b"/>
  <outline>
    <contour>
      <point x="156" y="-64" type="line" smooth="no"/>
      <point x="156" y="1907" type="line" smooth="no"/>
      <point x="703" y="1907" type="line" smooth="no"/>
      <point x="703" y="1749" type="line" smooth="no"/>
      <point x="444" y="1749" type="line" smooth="no"/>
      <point x="444" y="94" type="line" smooth="no"/>
      <point x="703" y="94" type="line" smooth="no"/>
      <point x="703" y="-64" type="line" smooth="no"/>
    </contour>
  </outline>
</glyph>
<glyph name="backslash" format="1">
  <advance width="629"/>
  <unicode hex="005c"/>
  <outline>
    <contour>
      <point x="265" y="0" type="line" smooth="no"/>
      <point x="68" y="1843" type="line" smooth="no"/>
      <point x="356" y="1843" type="line" smooth="no"/>
      <point x="554" y="0" type="line" smooth="no"/>
    </contour>
  </outline>
</glyph>
<glyph name="bracketright" format="1">
  <advance width="728"/>
  <unicode hex="005d"/>
  <outline>
    <contour>
      <point x="76" y="-64" type="line" smooth="no"/>
      <point x="76" y="64" type="line" smooth="no"/>
      <point x="332" y="64" type="line" smooth="no"/>
      <point x="332" y="1728" type="line" smooth="no"/>
      <point x="76" y="1728" type="line" smooth="no"/>
      <point x="76" y="1856" type="line" smooth="no"/>
      <point x="588" y="1856" type="line" smooth="no"/>
      <point x="588" y="-64" type="line" smooth="no"/>
    </contour>
  </outline>
</glyph>
<glyph name="asciicircum" format="1">
  <advance width="962"/>
  <unicode hex="005e"/>
  <outline>
    <contour>
      <point x="65" y="907" type="line" smooth="no"/>
      <point x="336" y="1583" type="line" smooth="no"/>
      <point x="613" y="1583" type="line" smooth="no"/>
      <point x="884" y="907" type="line" smooth="no"/>
      <point x="594" y="907" type="line" smooth="no"/>
      <point x="474" y="1325" type="line" smooth="no"/>
      <point x="355" y="907" type="line" smooth="no"/>
    </contour>
  </outline>
</glyph>
<glyph name="underscore" format="1">
  <advance width="829"/>
  <unicode hex="005f"/>
  <outline>
    <contour>
      <point x="6" y="0" type="line" smooth="no"/>
      <point x="6" y="223" type="line" smooth="no"/>
      <point x="812" y="223" type="line" smooth="no"/>
      <point x="812" y="0" type="line" smooth="no"/>
    </contour>
  </outline>
</glyph>
<glyph name="grave" format="1">
  <advance width="640"/>
  <unicode hex="0060"/>
  <outline>
    <contour>
      <point x="353" y="1393" type="line" smooth="no"/>
      <point x="76" y="1835" type="line" smooth="no"/>
      <point x="422" y="1835" type="line" smooth="no"/>
      <point x="558" y="1393" type="line" smooth="no"/>
    </contour>
  </outline>
</glyph>
<glyph name="k" format="1">
  <advance width="981"/>
  <unicode hex="006b"/>
  <outline>
    <contour>
      <point x="99" y="0" type="line" smooth="no"/>
      <point x="99" y="1800" type="line" smooth="no"/>
      <point x="436" y="1800" type="line" smooth="no"/>
      <point x="436" y="852" type="line" smooth="no"/>
      <point x="642" y="1305" type="line" smooth="no"/>
      <point x="1003" y="1305" type="line" smooth="no"/>
      <point x="682" y="754" type="line" smooth="no"/>
      <point x="1002" y="0" type="line" smooth="no"/>
      <point x="653" y="0" type="line" smooth="no"/>
      <point x="481" y="582" type="line" smooth="no"/>
      <point x="436" y="506" type="line" smooth="no"/>
      <point x="436" y="0" type="line" smooth="no"/>
    </contour>
  </outline>
</glyph>
<glyph name="n" format="1">
  <advance width="1005"/>
  <unicode hex="006e"/>
  <outline>
    <contour>
      <point x="94" y="0" type="line" smooth="no"/>
      <point x="94" y="1305" type="line" smooth="no"/>
      <point x="431" y="1305" type="line" smooth="no"/>
      <point x="431" y="1213" type="line" smooth="no"/>
      <point x="493" y="1283"/>
      <point x="587" y="1334"/>
      <point x="687" y="1334" type="curve" smooth="yes"/>
      <point x="832" y="1334"/>
      <point x="918" y="1183"/>
      <point x="918" y="1052" type="curve" smooth="yes"/>
      <point x="918" y="0" type="line" smooth="no"/>
      <point x="581" y="0" type="line" smooth="no"/>
      <point x="581" y="993" type="line" smooth="yes"/>
      <point x="581" y="1021"/>
      <point x="581" y="1080"/>
      <point x="525" y="1080" type="curve" smooth="yes"/>
      <point x="486" y="1080"/>
      <point x="450" y="1034"/>
      <point x="431" y="1012" type="curve" smooth="no"/>
      <point x="431" y="0" type="line" smooth="no"/>
    </contour>
  </outline>
</glyph>
<glyph name="v" format="1">
  <advance width="892"/>
  <unicode hex="0076"/>
  <outline>
    <contour>
      <point x="282" y="0" type="line" smooth="no"/>
      <point x="11" y="1305" type="line" smooth="no"/>
      <point x="327" y="1305" type="line" smooth="no"/>
      <point x="456" y="424" type="line" smooth="no"/>
      <point x="565" y="1305" type="line" smooth="no"/>
      <point x="881" y="1305" type="line" smooth="no"/>
      <point x="623" y="0" type="line" smooth="no"/>
    </contour>
  </outline>
</glyph>
<glyph name="z" format="1">
  <advance width="813"/>
  <unicode hex="007a"/>
  <outline>
    <contour>
      <point x="57" y="0" type="line" smooth="no"/>
      <point x="57" y="228" type="line" smooth="no"/>
      <point x="416" y="1062" type="line" smooth="no"/>
      <point x="113" y="1062" type="line" smooth="no"/>
      <point x="113" y="1305" type="line" smooth="no"/>
      <point x="764" y="1305" type="line" smooth="no"/>
      <point x="764" y="1082" type="line" smooth="no"/>
      <point x="402" y="244" type="line" smooth="no"/>
      <point x="764" y="244" type="line" smooth="no"/>
      <point x="764" y="0" type="line" smooth="no"/>
    </contour>
  </outline>
</glyph>
<glyph name="bar" format="1">
  <advance width="429"/>
  <unicode hex="007c"/>
  <outline>
    <contour>
      <point x="134" y="-130" type="line" smooth="no"/>
      <point x="134" y="1972" type="line" smooth="no"/>
      <point x="356" y="1972" type="line" smooth="no"/>
      <point x="356" y="-130" type="line" smooth="no"/>
    </contour>
  </outline>
</glyph>
<glyph name="exclamdown" format="1">
  <advance width="524"/>
  <unicode hex="00a1"/>
  <outline>
    <contour>
      <point x="438" y="1800" type="line" smooth="no"/>
      <point x="438" y="1482" type="line" smooth="no"/>
      <point x="115" y="1482" type="line" smooth="no"/>
      <point x="115" y="1800" type="line" smooth="no"/>
    </contour>
    <contour>
      <point x="334" y="1337" type="line" smooth="no"/>
      <point x="438" y="-1" type="line" smooth="no"/>
      <point x="95" y="-1" type="line" smooth="no"/>
      <point x="218" y="1337" type="line" smooth="no"/>
    </contour>
  </outline>
</glyph>
<glyph name="sterling" format="1">
  <advance width="1137"/>
  <unicode hex="00a3"/>
  <outline>
    <contour>
      <point x="84" y="0" type="line" smooth="no"/>
      <point x="84" y="186" type="line" smooth="no"/>
      <point x="205" y="245" type="line" smooth="no"/>
      <point x="205" y="725" type="line" smooth="no"/>
      <point x="84" y="725" type="line" smooth="no"/>
      <point x="84" y="984" type="line" smooth="no"/>
      <point x="205" y="984" type="line" smooth="no"/>
      <point x="205" y="1206" type="line" smooth="yes"/>
      <point x="205" y="1500"/>
      <point x="254" y="1834"/>
      <point x="641" y="1834" type="curve" smooth="yes"/>
      <point x="1006" y="1834"/>
      <point x="1039" y="1563"/>
      <point x="1039" y="1305" type="curve" smooth="no"/>
      <point x="712" y="1305" type="line" smooth="no"/>
      <point x="712" y="1381"/>
      <point x="712" y="1552"/>
      <point x="641" y="1552" type="curve" smooth="yes"/>
      <point x="578" y="1552"/>
      <point x="570" y="1359"/>
      <point x="570" y="1204" type="curve" smooth="yes"/>
      <point x="570" y="984" type="line" smooth="no"/>
      <point x="815" y="984" type="line" smooth="no"/>
      <point x="815" y="725" type="line" smooth="no"/>
      <point x="570" y="725" type="line" smooth="no"/>
      <point x="570" y="284" type="line" smooth="no"/>
      <point x="1029" y="284" type="line" smooth="no"/>
      <point x="1029" y="0" type="line" smooth="no"/>
    </contour>
  </outline>
</glyph>
<glyph name="brokenbar" format="1">
  <advance width="441"/>
  <unicode hex="00a6"/>
  <outline>
    <contour>
      <point x="98" y="900" type="line" smooth="no"/>
      <point x="98" y="1565" type="line" smooth="no"/>
      <point x="332" y="1565" type="line" smooth="no"/>
      <point x="332" y="900" type="line" smooth="no"/>
    </contour>
    <contour>
      <point x="98" y="-15" type="line" smooth="no"/>
      <point x="98" y="650" type="line" smooth="no"/>
      <point x="332" y="650" type="line" smooth="no"/>
      <point x="332" y="-15" type="line" smooth="no"/>
    </contour>
  </outline>
</glyph>
<glyph name="guillemotleft" format="1">
  <advance width="1054"/>
  <unicode hex="00ab"/>
  <outline>
    <contour>
      <point x="975" y="64" type="line" smooth="no"/>
      <point x="527" y="576" type="line" smooth="no"/>
      <point x="527" y="704" type="line" smooth="no"/>
      <point x="975" y="1216" type="line" smooth="no"/>
      <point x="975" y="896" type="line" smooth="no"/>
      <point x="719" y="641" type="line" smooth="no"/>
      <point x="975" y="384" type="line" smooth="no"/>
    </contour>
    <contour>
      <point x="527" y="64" type="line" smooth="no"/>
      <point x="79" y="576" type="line" smooth="no"/>
      <point x="79" y="704" type="line" smooth="no"/>
      <point x="527" y="1216" type="line" smooth="no"/>
      <point x="527" y="896" type="line" smooth="no"/>
      <point x="271" y="641" type="line" smooth="no"/>
      <point x="527" y="384" type="line" smooth="no"/>
    </contour>
  </outline>
</glyph>
<glyph name="logicalnot" format="1">
  <advance width="829"/>
  <unicode hex="00ac"/>
  <outline>
    <contour>
      <point x="136" y="453" type="line" smooth="no"/>
      <point x="136" y="676" type="line" smooth="no"/>
      <point x="683" y="676" type="line" smooth="no"/>
      <point x="683" y="259" type="line" smooth="no"/>
      <point x="525" y="259" type="line" smooth="no"/>
      <point x="525" y="453" type="line" smooth="no"/>
    </contour>
  </outline>
</glyph>
<glyph name="macron" format="1">
  <advance width="429"/>
  <unicode hex="00af"/>
  <outline>
    <contour>
      <point x="-36" y="1457" type="line" smooth="no"/>
      <point x="-36" y="1650" type="line" smooth="no"/>
      <point x="471" y="1650" type="line" smooth="no"/>
      <point x="471" y="1457" type="line" smooth="no"/>
    </contour>
  </outline>
</glyph>
<glyph name="plusminus" format="1">
  <advance width="895"/>
  <unicode hex="00b1"/>
  <outline>
    <contour>
      <point x="330" y="389" type="line" smooth="no"/>
      <point x="330" y="583" type="line" smooth="no"/>
      <point x="137" y="583" type="line" smooth="no"/>
      <point x="137" y="806" type="line" smooth="no"/>
      <point x="330" y="806" type="line" smooth="no"/>
      <point x="330" y="1000" type="line" smooth="no"/>
      <point x="554" y="1000" type="line" smooth="no"/>
      <point x="554" y="806" type="line" smooth="no"/>
      <point x="747" y="806" type="line" smooth="no"/>
      <point x="747" y="583" type="line" smooth="no"/>
      <point x="554" y="583" type="line" smooth="no"/>
      <point x="554" y="389" type="line" smooth="no"/>
    </contour>
    <contour>
      <point x="137" y="0" type="line" smooth="no"/>
      <point x="137" y="223" type="line" smooth="no"/>
      <point x="747" y="223" type="line" smooth="no"/>
      <point x="747" y="0" type="line" smooth="no"/>
    </contour>
  </outline>
</glyph>
<glyph name="acute" format="1">
  <advance width="638"/>
  <unicode hex="00b4"/>
  <outline>
    <contour>
      <point x="113" y="1393" type="line" smooth="no"/>
      <point x="249" y="1835" type="line" smooth="no"/>
      <point x="594" y="1835" type="line" smooth="no"/>
      <point x="317" y="1393" type="line" smooth="no"/>
    </contour>
  </outline>
</glyph>
<glyph name="periodcentered" format="1">
  <advance width="520"/>
  <unicode hex="00b7"/>
  <outline>
    <contour>
      <point x="99" y="679" type="line" smooth="no"/>
      <point x="99" y="994" type="line" smooth="no"/>
      <point x="422" y="994" type="line" smooth="no"/>
      <point x="422" y="679" type="line" smooth="no"/>
    </contour>
  </outline>
</glyph>
<glyph name="onesuperior" format="1">
  <advance width="562"/>
  <unicode hex="00b9"/>
  <outline>
    <contour>
      <point x="198" y="648" type="line" smooth="no"/>
      <point x="198" y="1231" type="line" smooth="no"/>
      <point x="69" y="1231" type="line" smooth="no"/>
      <point x="69" y="1384" type="line" smooth="no"/>
      <point x="169" y="1434"/>
      <point x="264" y="1496"/>
      <point x="335" y="1583" type="curve" smooth="no"/>
      <point x="421" y="1583" type="line" smooth="no"/>
      <point x="421" y="648" type="line" smooth="no"/>
    </contour>
  </outline>
</glyph>
<glyph name="guillemotright" format="1">
  <advance width="1054"/>
  <unicode hex="00bb"/>
  <outline>
    <contour>
      <point x="79" y="64" type="line" smooth="no"/>
      <point x="79" y="384" type="line" smooth="no"/>
      <point x="335" y="641" type="line" smooth="no"/>
      <point x="79" y="896" type="line" smooth="no"/>
      <point x="79" y="1216" type="line" smooth="no"/>
      <point x="527" y="704" type="line" smooth="no"/>
      <point x="527" y="576" type="line" smooth="no"/>
    </contour>
    <contour>
      <point x="527" y="64" type="line" smooth="no"/>
      <point x="527" y="384" type="line" smooth="no"/>
      <point x="783" y="641" type="line" smooth="no"/>
      <point x="527" y="896" type="line" smooth="no"/>
      <point x="527" y="1216" type="line" smooth="no"/>
      <point x="975" y="704" type="line" smooth="no"/>
      <point x="975" y="576" type="line" smooth="no"/>
    </contour>
  </outline>
</glyph>
<glyph name="AE" format="1">
  <advance width="1609"/>
  <unicode hex="00c6"/>
  <outline>
    <contour>
      <point x="643" y="609" type="line" smooth="no"/>
      <point x="854" y="609" type="line" smooth="no"/>
      <point x="854" y="1183" type="line" smooth="no"/>
    </contour>
    <contour>
      <point x="44" y="0" type="line" smooth="no"/>
      <point x="817" y="1800" type="line" smooth="no"/>
      <point x="1578" y="1800" type="line" smooth="no"/>
      <point x="1578" y="1550" type="line" smooth="no"/>
      <point x="1191" y="1550" type="line" smooth="no"/>
      <point x="1191" y="1060" type="line" smooth="no"/>
      <point x="1465" y="1060" type="line" smooth="no"/>
      <point x="1465" y="804" type="line" smooth="no"/>
      <point x="1191" y="804" type="line" smooth="no"/>
      <point x="1191" y="250" type="line" smooth="no"/>
      <point x="1578" y="250" type="line" smooth="no"/>
      <point x="1578" y="0" type="line" smooth="no"/>
      <point x="854" y="0" type="line" smooth="no"/>
      <point x="854" y="385" type="line" smooth="no"/>
      <point x="570" y="385" type="line" smooth="no"/>
      <point x="428" y="0" type="line" smooth="no"/>
    </contour>
  </outline>
</glyph>
<glyph name="multiply" format="1">
  <advance width="829"/>
  <unicode hex="00d7"/>
  <outline>
    <contour>
      <point x="65" y="468" type="line" smooth="no"/>
      <point x="259" y="662" type="line" smooth="no"/>
      <point x="65" y="856" type="line" smooth="no"/>
      <point x="215" y="1007" type="line" smooth="no"/>
      <point x="409" y="812" type="line" smooth="no"/>
      <point x="604" y="1007" type="line" smooth="no"/>
      <point x="753" y="856" type="line" smooth="no"/>
      <point x="559" y="662" type="line" smooth="no"/>
      <point x="623" y="597"/>
      <point x="688" y="531"/>
      <point x="753" y="468" type="curve" smooth="no"/>
      <point x="604" y="318" type="line" smooth="no"/>
      <point x="409" y="513" type="line" smooth="no"/>
      <point x="215" y="318" type="line" smooth="no"/>
    </contour>
  </outline>
</glyph>
<glyph name="divide" format="1">
  <advance width="696"/>
  <unicode hex="00f7"/>
  <outline>
    <contour>
      <point x="200" y="236" type="line" smooth="no"/>
      <point x="200" y="523" type="line" smooth="no"/>
      <point x="487" y="523" type="line" smooth="no"/>
      <point x="487" y="236" type="line" smooth="no"/>
    </contour>
    <contour>
      <point x="200" y="890" type="line" smooth="no"/>
      <point x="200" y="1177" type="line" smooth="no"/>
      <point x="487" y="1177" type="line" smooth="no"/>
      <point x="487" y="890" type="line" smooth="no"/>
    </contour>
    <contour>
      <point x="6" y="583" type="line" smooth="no"/>
      <point x="6" y="806" type="line" smooth="no"/>
      <point x="682" y="806" type="line" smooth="no"/>
      <point x="682" y="583" type="line" smooth="no"/>
    </contour>
  </outline>
</glyph>
<glyph name="gcedilla" format="1">
  <advance width="965"/>
  <unicode hex="0123"/>
  <outline>
    <component base="g"/>
    <contour>
      <point x="574" y="1980" type="curve" smooth="no"/>
      <point x="614" y="1814" type="line" smooth="no"/>
      <point x="542" y="1814"/>
      <point x="534" y="1821"/>
      <point x="533" y="1737" type="curve" smooth="no"/>
      <point x="643" y="1737" type="line" smooth="no"/>
      <point x="643" y="1419" type="line" smooth="no"/>
      <point x="320" y="1419" type="line" smooth="no"/>
      <point x="316" y="1766"/>
      <point x="301" y="1980"/>
    </contour>
  </outline>
</glyph>
<glyph name="Hcircumflex" format="1">
  <advance width="1257"/>
  <unicode hex="0124"/>
  <outline>
    <contour>
      <point x="165" y="0" type="line" smooth="no"/>
      <point x="165" y="1797" type="line" smooth="no"/>
      <point x="489" y="1797" type="line" smooth="no"/>
      <point x="489" y="1056" type="line" smooth="no"/>
      <point x="769" y="1056" type="line" smooth="no"/>
      <point x="769" y="1797" type="line" smooth="no"/>
      <point x="1094" y="1797" type="line" smooth="no"/>
      <point x="1094" y="0" type="line" smooth="no"/>
      <point x="769" y="0" type="line" smooth="no"/>
      <point x="769" y="801" type="line" smooth="no"/>
      <point x="489" y="801" type="line" smooth="no"/>
      <point x="489" y="0" type="line" smooth="no"/>
    </contour>
    <contour>
      <point x="281" y="1859" type="line" smooth="no"/>
      <point x="485" y="2300" type="line" smooth="no"/>
      <point x="774" y="2300" type="line" smooth="no"/>
      <point x="980" y="1859" type="line" smooth="no"/>
      <point x="702" y="1859" type="line" smooth="no"/>
      <point x="629" y="2030" type="line" smooth="no"/>
      <point x="556" y="1859" type="line" smooth="no"/>
    </contour>
  </outline>
</glyph>
<glyph name="kgreenlandic" format="1">
  <advance width="1011"/>
  <unicode hex="0138"/>
  <outline>
    <contour>
      <point x="99" y="0" type="line" smooth="no"/>
      <point x="99" y="1305" type="line" smooth="no"/>
      <point x="436" y="1305" type="line" smooth="no"/>
      <point x="436" y="882" type="line" smooth="no"/>
      <point x="642" y="1305" type="line" smooth="no"/>
      <point x="973" y="1305" type="line" smooth="no"/>
      <point x="702" y="744" type="line" smooth="no"/>
      <point x="972" y="0" type="line" smooth="no"/>
      <point x="633" y="0" type="line" smooth="no"/>
      <point x="471" y="502" type="line" smooth="no"/>
      <point x="436" y="443" type="line" smooth="no"/>
      <point x="436" y="0" type="line" smooth="no"/>
    </contour>
  </outline>
</glyph>
<glyph name="Lslash" format="1">
  <advance width="855"/>
  <unicode hex="0141"/>
  <outline>
    <contour>
      <point x="97" y="0" type="line" smooth="no"/>
      <point x="97" y="887" type="line" smooth="no"/>
      <point x="15" y="856" type="line" smooth="no"/>
      <point x="15" y="1039" type="line" smooth="no"/>
      <point x="97" y="1070" type="line" smooth="no"/>
      <point x="97" y="1800" type="line" smooth="no"/>
      <point x="461" y="1800" type="line" smooth="no"/>
      <point x="461" y="1207" type="line" smooth="no"/>
      <point x="718" y="1305" type="line" smooth="no"/>
      <point x="718" y="1122" type="line" smooth="no"/>
      <point x="461" y="1024" type="line" smooth="no"/>
      <point x="461" y="250" type="line" smooth="no"/>
      <point x="819" y="250" type="line" smooth="no"/>
      <point x="819" y="0" type="line" smooth="no"/>
    </contour>
  </outline>
</glyph>
<glyph name="circumflex" format="1">
  <advance width="894"/>
  <unicode hex="02c6"/>
  <outline>
    <contour>
      <point x="107" y="1393" type="line" smooth="no"/>
      <point x="308" y="1799" type="line" smooth="no"/>
      <point x="598" y="1799" type="line" smooth="no"/>
      <point x="804" y="1393" type="line" smooth="no"/>
      <point x="529" y="1393" type="line" smooth="no"/>
      <point x="454" y="1595" type="line" smooth="no"/>
      <point x="381" y="1393" type="line" smooth="no"/>
    </contour>
  </outline>
</glyph>
<glyph name="caron" format="1">
  <advance width="859"/>
  <unicode hex="02c7"/>
  <outline>
    <contour>
      <point x="281" y="1385" type="line" smooth="no"/>
      <point x="80" y="1791" type="line" smooth="no"/>
      <point x="354" y="1791" type="line" smooth="no"/>
      <point x="427" y="1590" type="line" smooth="no"/>
      <point x="502" y="1791" type="line" smooth="no"/>
      <point x="777" y="1791" type="line" smooth="no"/>
      <point x="571" y="1385" type="line" smooth="no"/>
    </contour>
  </outline>
</glyph>
<glyph name="dotaccent" format="1">
  <advance width="579"/>
  <unicode hex="02d9"/>
  <outline>
    <contour>
      <point x="146" y="1499" type="line" smooth="no"/>
      <point x="146" y="1817" type="line" smooth="no"/>
      <point x="469" y="1817" type="line" smooth="no"/>
      <point x="469" y="1499" type="line" smooth="no"/>
    </contour>
  </outline>
</glyph>
<glyph name="hungarumlaut" format="1">
  <advance width="984"/>
  <unicode hex="02dd"/>
  <outline>
    <contour>
      <point x="429" y="1405" type="line" smooth="no"/>
      <point x="566" y="1847" type="line" smooth="no"/>
      <point x="851" y="1847" type="line" smooth="no"/>
      <point x="636" y="1405" type="line" smooth="no"/>
    </contour>
    <contour>
      <point x="113" y="1405" type="line" smooth="no"/>
      <point x="250" y="1847" type="line" smooth="no"/>
      <point x="533" y="1847" type="line" smooth="no"/>
      <point x="318" y="1405" type="line" smooth="no"/>
    </contour>
  </outline>
</glyph>
<glyph name="uni030F" format="1">
  <advance width="984"/>
  <unicode hex="030f"/>
  <outline>
    <contour>
      <point x="646" y="1405" type="line" smooth="no"/>
      <point x="431" y="1847" type="line" smooth="no"/>
      <point x="714" y="1847" type="line" smooth="no"/>
      <point x="851" y="1405" type="line" smooth="no"/>
    </contour>
    <contour>
      <point x="328" y="1405" type="line" smooth="no"/>
      <point x="113" y="1847" type="line" smooth="no"/>
      <point x="398" y="1847" type="line" smooth="no"/>
      <point x="535" y="1405" type="line" smooth="no"/>
    </contour>
  </outline>
</glyph>
<glyph name="emdash" format="1">
  <advance width="827"/>
  <unicode hex="2014"/>
  <outline>
    <contour>
      <point x="4" y="453" type="line" smooth="no"/>
      <point x="4" y="676" type="line" smooth="no"/>
      <point x="821" y="676" type="line" smooth="no"/>
      <point x="821" y="453" type="line" smooth="no"/>
    </contour>
  </outline>
</glyph>
<glyph name="quotesinglbase" format="1">
  <advance width="429"/>
  <unicode hex="201a"/>
  <outline>
    <contour>
      <point x="127" y="-321" type="line" smooth="no"/>
      <point x="57" y="103" type="line" smooth="no"/>
      <point x="361" y="103" type="line" smooth="no"/>
      <point x="290" y="-321" type="line" smooth="no"/>
    </contour>
  </outline>
</glyph>
<glyph name="quotedblbase" format="1">
  <advance width="762"/>
  <unicode hex="201e"/>
  <outline>
    <contour>
      <point x="454" y="-320" type="line" smooth="no"/>
      <point x="383" y="104" type="line" smooth="no"/>
      <point x="688" y="104" type="line" smooth="no"/>
      <point x="616" y="-320" type="line" smooth="no"/>
    </contour>
    <contour>
      <point x="130" y="-320" type="line" smooth="no"/>
      <point x="60" y="104" type="line" smooth="no"/>
      <point x="364" y="104" type="line" smooth="no"/>
      <point x="293" y="-320" type="line" smooth="no"/>
    </contour>
  </outline>
</glyph>
<glyph name="guilsinglleft" format="1">
  <advance width="618"/>
  <unicode hex="2039"/>
  <outline>
    <contour>
      <point x="527" y="64" type="line" smooth="no"/>
      <point x="79" y="576" type="line" smooth="no"/>
      <point x="79" y="704" type="line" smooth="no"/>
      <point x="527" y="1216" type="line" smooth="no"/>
      <point x="527" y="896" type="line" smooth="no"/>
      <point x="271" y="641" type="line" smooth="no"/>
      <point x="527" y="384" type="line" smooth="no"/>
    </contour>
  </outline>
</glyph>
<glyph name="guilsinglright" format="1">
  <advance width="600"/>
  <unicode hex="203a"/>
  <outline>
    <contour>
      <point x="79" y="64" type="line" smooth="no"/>
      <point x="79" y="384" type="line" smooth="no"/>
      <point x="335" y="641" type="line" smooth="no"/>
      <point x="79" y="896" type="line" smooth="no"/>
      <point x="79" y="1216" type="line" smooth="no"/>
      <point x="527" y="704" type="line" smooth="no"/>
      <point x="527" y="576" type="line" smooth="no"/>
    </contour>
  </outline>
</glyph>
<glyph name="product" format="1">
  <advance width="1246"/>
  <unicode hex="220f"/>
  <outline>
    <contour>
      <point x="143" y="0" type="line" smooth="no"/>
      <point x="143" y="1792" type="line" smooth="no"/>
      <point x="1103" y="1792" type="line" smooth="no"/>
      <point x="1103" y="0" type="line" smooth="no"/>
      <point x="847" y="0" type="line" smooth="no"/>
      <point x="847" y="1600" type="line" smooth="no"/>
      <point x="399" y="1600" type="line" smooth="no"/>
      <point x="399" y="0" type="line" smooth="no"/>
    </contour>
  </outline>
</glyph>
<glyph name=".notdef" format="1">
  <advance width="762"/>
  <outline>
    <contour>
      <point x="260" y="136" type="line" smooth="no"/>
      <point x="505" y="136" type="line" smooth="no"/>
      <point x="505" y="1255" type="line" smooth="no"/>
      <point x="260" y="1255" type="line" smooth="no"/>
    </contour>
    <contour>
      <point x="98" y="0" type="line" smooth="no"/>
      <point x="98" y="1389" type="line" smooth="no"/>
      <point x="669" y="1389" type="line" smooth="no"/>
      <point x="669" y="0" type="line" smooth="no"/>
    </contour>
  </outline>
</glyph>
<glyph name="foundryicon" format="1">
  <advance width="1620"/>
  <outline>
    <contour>
      <point x="346" y="277" type="line" smooth="no"/>
      <point x="514" y="819" type="line" smooth="no"/>
      <point x="55" y="1157" type="line" smooth="no"/>
      <point x="627" y="1168" type="line" smooth="no"/>
      <point x="805" y="1710" type="line" smooth="no"/>
      <point x="993" y="1168" type="line" smooth="no"/>
      <point x="1565" y="1168" type="line" smooth="no"/>
      <point x="1104" y="819" type="line" smooth="no"/>
      <point x="1274" y="277" type="line" smooth="no"/>
      <point x="805" y="604" type="line" smooth="no"/>
    </contour>
  </outline>
</glyph>
